<svg xmlns="http://www.w3.org/2000/svg" viewBox="0 0 177 321.46"><defs><style>.cls-1{stroke:#000;stroke-miterlimit:10}</style></defs><g id="レイヤー_2" data-name="レイヤー 2"><g id="レイヤー_1-2" data-name="レイヤー 1"><path class="cls-1" d="M42.07 1.4 67.35 35a2.24 2.24 0 0 1-1.25 3.54l-31.67 8A2.26 2.26 0 0 1 31.65 44L38 2.42a2.26 2.26 0 0 1 4.07-1.02ZM142.71 4l2.14 38.8a2.68 2.68 0 0 1-3.61 2.66L112.1 34.63a2.68 2.68 0 0 1-1-4.37l27-27.94A2.67 2.67 0 0 1 142.71 4ZM144.5 164.96h-113l10-53h94l9 53z"/><path class="cls-1" d="M.5 234.76c0 59.81 38.4 86.2 87 86.2s89-26.39 89-86.2-39.4-108.3-88-108.3S.5 175 .5 234.76ZM158.5 76c0-33-30.62-46-69-46-38.73 0-73 14-70 46 2.94 31.26 31.62 47 70 47s69-15.9 69-47Z"/></g></g></svg>