<svg xmlns="http://www.w3.org/2000/svg" viewBox="0 0 121.83 182.12"><g data-name="レイヤー 2"><path d="m114.2 161.49-15.73-4.68a154 154 0 0 1-15-4.91L86 153a59.83 59.83 0 0 1-13.09-7.87l2.13 1.64a118.75 118.75 0 0 1-20.84-21l1.65 2.12a119.6 119.6 0 0 1-15.45-26.45l1.07 2.56c-4.2-10-7-20.55-9.46-31.14-2.5-10.94-4.77-21.94-7.12-32.91-1.33-6.2-2.79-12.39-3.65-18.68l.38 2.73a59.79 59.79 0 0 1-.39-13.5c.25-2.53-1.35-5.7-3.07-7.43a10.51 10.51 0 0 0-14.85 0 11.88 11.88 0 0 0-3.08 7.44c-.77 8 .51 16.12 2.07 24 1.43 7.15 3 14.26 4.56 21.38 3 13.84 5.64 27.83 9.88 41.36a134 134 0 0 0 17.55 36.61A132 132 0 0 0 63 163.75a71.43 71.43 0 0 0 22.32 11c7.72 2.42 15.5 4.64 23.26 7 5.26 1.57 11.67-1.88 12.91-7.33a10.71 10.71 0 0 0-7.33-12.92Z" data-name="レイヤー 1"/></g></svg>